<svg width="32" height="32" viewBox="0 0 32 32" fill="none" xmlns="http://www.w3.org/2000/svg">
<path fill-rule="evenodd" clip-rule="evenodd" d="M8 0C3.58172 0 0 3.58172 0 8V24C0 28.4183 3.58172 32 8 32H24C28.4183 32 32 28.4183 32 24V8C32 3.58172 28.4183 0 24 0H8ZM11.6812 26.033C12.8213 26.6777 14.087 27 15.4783 27C16.5217 27 17.343 26.869 17.942 26.6071C18.5411 26.3452 18.9855 26.0229 19.2754 25.6401C19.5845 25.2573 19.8068 24.8947 19.942 24.5522H20.4638V26.5769H24V15.7582H15.4203V19.1429H20.2319V19.4451C20.2319 20.6136 19.913 21.5806 19.2754 22.3462C18.6377 23.1117 17.6232 23.4945 16.2319 23.4945C14.8406 23.4945 13.7585 23.0513 12.9855 22.1648C12.2126 21.2582 11.8261 20.0696 11.8261 18.5989V13.4011C11.8261 11.9103 12.2126 10.7317 12.9855 9.86539C13.7585 8.99908 14.8213 8.56594 16.1739 8.56594C17.0821 8.56594 17.8357 8.74725 18.4348 9.10989C19.0338 9.45238 19.4783 9.92582 19.7681 10.5302C20.0773 11.1346 20.2319 11.8095 20.2319 12.5549V12.7967H24V12.6758C24 10.3187 23.314 8.45513 21.942 7.08517C20.5894 5.69506 18.6667 5 16.1739 5C13.6618 5 11.6715 5.73535 10.2029 7.20604C8.7343 8.65659 8 10.7418 8 13.4615V18.5385C8 20.3516 8.3285 21.8929 8.98551 23.1621C9.66184 24.4112 10.5604 25.3681 11.6812 26.033Z" fill="white"/>
</svg>
