<svg width="32" height="32" viewBox="0 0 32 32" fill="none" xmlns="http://www.w3.org/2000/svg">
<path d="M0 8C0 3.58172 3.58172 0 8 0H24C28.4183 0 32 3.58172 32 8V24C32 28.4183 28.4183 32 24 32H8C3.58172 32 0 28.4183 0 24V8Z" fill="url(#paint0_linear_101_6)"/>
<path d="M15.4783 27C14.087 27 12.8213 26.6777 11.6812 26.033C10.5604 25.3681 9.66184 24.4112 8.98551 23.1621C8.3285 21.8929 8 20.3516 8 18.5385V13.4615C8 10.7418 8.7343 8.65659 10.2029 7.20604C11.6715 5.73535 13.6618 5 16.1739 5C18.6667 5 20.5894 5.69506 21.942 7.08517C23.314 8.45513 24 10.3187 24 12.6758V12.7967H20.2319V12.5549C20.2319 11.8095 20.0773 11.1346 19.7681 10.5302C19.4783 9.92582 19.0338 9.45238 18.4348 9.10989C17.8357 8.74725 17.0821 8.56594 16.1739 8.56594C14.8213 8.56594 13.7585 8.99909 12.9855 9.86539C12.2126 10.7317 11.8261 11.9103 11.8261 13.4011V18.5989C11.8261 20.0696 12.2126 21.2582 12.9855 22.1648C13.7585 23.0513 14.8406 23.4945 16.2319 23.4945C17.6232 23.4945 18.6377 23.1117 19.2754 22.3462C19.913 21.5806 20.2319 20.6136 20.2319 19.4451V19.1429H15.4203V15.7582H24V26.5769H20.4638V24.5522H19.942C19.8068 24.8947 19.5845 25.2573 19.2754 25.6401C18.9855 26.0229 18.5411 26.3452 17.942 26.6071C17.343 26.869 16.5217 27 15.4783 27Z" fill="white"/>
<defs>
<linearGradient id="paint0_linear_101_6" x1="-1.19209e-07" y1="16" x2="32" y2="16" gradientUnits="userSpaceOnUse">
<stop stop-color="#4F46E5"/>
<stop offset="1" stop-color="#1E1B4B"/>
</linearGradient>
</defs>
</svg>
